# xmcd
#
# Track frame offsets: 
#        150
#        13280
#        25952
#        38817
#        47632
#        58782
#        71795
#        81692
#
# Disc length: 1188 seconds
#
# Revision: 0
# Processed by: cddbd v1.5.1PL2 Copyright (c) Steve Scherf et al.
# Submitted via: ExactAudioCopy v0.90b4
#
DISCID=7204a208
DTITLE=Hion Martell and His Undercover Cops - ...For Your Exquisite Deli
DTITLE=ght
DYEAR=1900
DGENRE=Blues
TTITLE0=Big Train
TTITLE1=Headlines
TTITLE2=Southern California
TTITLE3=Mountain Music
TTITLE4=Don't Shout
TTITLE5=Damned If They Don't
TTITLE6=Destination Unknown
TTITLE7=[Unnamed Bonus Track]
EXTD=
EXTT0=
EXTT1=
EXTT2=
EXTT3=
EXTT4=
EXTT5=
EXTT6=
EXTT7=
PLAYORDER=
